<?xml version="1.0" encoding="UTF-8" standalone="no"?>
<!DOCTYPE svg PUBLIC "-//W3C//DTD SVG 1.1//EN" "http://www.w3.org/Graphics/SVG/1.1/DTD/svg11.dtd">
<svg width="100%" height="100%" viewBox="0 0 104 104" version="1.1" xmlns="http://www.w3.org/2000/svg" xmlns:xlink="http://www.w3.org/1999/xlink" xml:space="preserve" xmlns:serif="http://www.serif.com/" style="fill-rule:evenodd;clip-rule:evenodd;stroke-linejoin:round;">
    <g transform="matrix(1,0,0,1,-163.075,-286.035)">
        <g transform="matrix(-3.74999,0,0,3.74999,274.951,277.91)">
            <path d="M16,29.333C23.364,29.333 29.334,23.364 29.334,16C29.334,8.636 23.364,2.667 16,2.667C8.636,2.667 2.667,8.636 2.667,16C2.667,23.364 8.636,29.333 16,29.333Z" style="fill:white;fill-rule:nonzero;"/>
        </g>
        <g transform="matrix(-3.74999,0,0,3.74999,274.951,277.91)">
            <path d="M16,29.333C23.364,29.333 29.334,23.364 29.334,16C29.334,8.636 23.364,2.667 16,2.667C8.636,2.667 2.667,8.636 2.667,16C2.667,23.364 8.636,29.333 16,29.333Z" style="fill:none;fill-rule:nonzero;stroke:rgb(232,232,232);stroke-width:1px;"/>
        </g>
        <g transform="matrix(-3.74999,0,0,3.74999,274.951,277.91)">
            <path d="M18.943,9.057C19.464,9.578 19.464,10.422 18.943,10.943L13.886,16L18.943,21.057C19.464,21.578 19.464,22.422 18.943,22.943C18.422,23.464 17.578,23.464 17.058,22.943L11.057,16.943C10.537,16.422 10.537,15.578 11.057,15.057L17.058,9.057C17.578,8.536 18.422,8.536 18.943,9.057Z" style="fill:rgb(204,204,204);"/>
        </g>
    </g>
</svg>
