<svg width="273" height="50" viewBox="0 0 273 50" fill="none" xmlns="http://www.w3.org/2000/svg">
<path d="M92.4997 1.00352V48.99H77.8509V30.1186H62.6026V48.99H47.9539V1.00352H62.6026V20.0769H77.8509V1.00352H92.4997ZM143.458 39.3523V1.00352H128.815V48.99H155.298L157.507 39.3523H143.458ZM117.979 1.00352H103.33V48.99H117.979V1.00352ZM177.369 1.00352H162.72V48.99H177.369V1.00352ZM249.596 13.2543C249.596 10.6412 252.209 9.4422 256.419 9.4422C261.032 9.4422 266.05 10.4457 269.464 11.8467L268.259 1.40754C264.447 0.606024 261.039 0 254.816 0C242.982 0 234.954 4.66571 234.954 14.4598C234.954 31.3241 257.826 27.9161 257.826 35.7422C257.826 38.7528 255.617 40.3623 250.202 40.3623C245.386 40.3623 237.964 38.7528 233.546 36.5437L235.156 47.589C239.567 49.192 245.588 50 250.404 50C262.642 50 272.67 45.9794 272.67 33.9372C272.67 17.8744 249.596 20.8849 249.596 13.2543ZM230.542 18.2784C230.542 30.5291 221.915 37.5538 208.269 37.5538H203.05V48.9965H188.401V1.01004C193.418 0.404016 200.437 0.00651775 206.256 0.00651775C221.308 0.00651775 230.536 4.82862 230.536 18.2784H230.542ZM216.095 18.4739C216.095 12.4462 212.681 9.03819 205.461 9.03819C204.705 9.03819 203.91 9.03819 203.056 9.09032V28.9196H205.461C213.085 28.9196 216.095 24.7035 216.095 18.4804V18.4739ZM42.1413 18.2784C42.1413 30.5291 33.5136 37.5538 19.8684 37.5538H14.6488V48.9965H0V1.01004C5.01759 0.404016 12.0357 0.00651775 17.8613 0.00651775C32.9076 0.00651775 42.1348 4.82862 42.1348 18.2784H42.1413ZM27.6945 18.4739C27.6945 12.4462 24.2865 9.03819 17.0598 9.03819C16.3104 9.03819 15.5024 9.03819 14.6488 9.09032V28.9196H17.0598C24.684 28.9196 27.6945 24.7035 27.6945 18.4804V18.4739Z" fill="#0074E0"/>
</svg>
